<svg width="28" height="28" viewBox="0 0 28 28" fill="none" xmlns="http://www.w3.org/2000/svg">
<path d="M0.309425 0.000374875C0.224532 0.0083758 0.145704 0.047848 0.088444 0.111031C0.0311841 0.174215 -0.000364495 0.256537 3.17786e-06 0.341805V27.6562C1.22315e-05 27.7468 0.0359873 27.8336 0.100016 27.8977C0.164045 27.9617 0.250883 27.9977 0.341434 27.9977H27.6559C27.7464 27.9977 27.8333 27.9617 27.8973 27.8977C27.9613 27.8336 27.9973 27.7468 27.9973 27.6562V0.341805C27.9973 0.251255 27.9613 0.164411 27.8973 0.100383C27.8333 0.0363538 27.7464 0.000383929 27.6559 0.000374875H0.341434C0.330776 -0.000124958 0.3201 -0.000124958 0.309442 0.000374875H0.309425ZM0.682882 0.683236H13.6572V13.6576H0.682882V0.683236ZM14.3401 0.683236H27.3145V13.6576H14.3401V0.683236ZM7.266 3.93747C7.18304 3.94793 7.10679 3.98847 7.05173 4.0514C6.99666 4.11434 6.9666 4.19529 6.96725 4.27891V6.70095H4.54521C4.52392 6.69894 4.50249 6.69894 4.48119 6.70095C4.43618 6.70492 4.39239 6.71776 4.35234 6.73871C4.3123 6.75966 4.2768 6.78833 4.24787 6.82305C4.21894 6.85777 4.19716 6.89785 4.18378 6.94102C4.17039 6.98418 4.16568 7.02958 4.1699 7.07458C4.17411 7.11957 4.18718 7.16329 4.20836 7.20322C4.22953 7.24314 4.25838 7.27849 4.29326 7.30723C4.32814 7.33596 4.36835 7.35752 4.41159 7.37066C4.45483 7.38381 4.50024 7.38828 4.54521 7.38381H6.96725V9.79516C6.96661 9.84041 6.97497 9.88534 6.99184 9.92733C7.00871 9.96931 7.03376 10.0075 7.06553 10.0397C7.0973 10.072 7.13515 10.0975 7.1769 10.115C7.21864 10.1325 7.26343 10.1415 7.30868 10.1415C7.35393 10.1415 7.39873 10.1325 7.44047 10.115C7.48221 10.0975 7.52007 10.072 7.55184 10.0397C7.5836 10.0075 7.60865 9.96931 7.62552 9.92733C7.64239 9.88534 7.65075 9.84041 7.65011 9.79516V7.38381H10.0615C10.1067 7.38445 10.1516 7.37609 10.1936 7.35922C10.2356 7.34235 10.2738 7.3173 10.306 7.28553C10.3383 7.25376 10.3638 7.21591 10.3813 7.17417C10.3988 7.13243 10.4078 7.08763 10.4078 7.04238C10.4078 6.99713 10.3988 6.95233 10.3813 6.91059C10.3638 6.86885 10.3383 6.831 10.306 6.79923C10.2738 6.76746 10.2356 6.74241 10.1936 6.72554C10.1516 6.70867 10.1067 6.70031 10.0615 6.70095H7.65011V4.27891C7.65049 4.23024 7.64046 4.18207 7.6207 4.13759C7.60093 4.09312 7.57189 4.05339 7.53552 4.02106C7.49914 3.98873 7.45628 3.96454 7.4098 3.95012C7.36331 3.93571 7.31429 3.9314 7.266 3.93747ZM18.8641 6.70095C18.819 6.70492 18.7753 6.71776 18.7352 6.73871C18.6952 6.75966 18.6597 6.78833 18.6307 6.82305C18.6018 6.85777 18.58 6.89785 18.5666 6.94102C18.5533 6.98418 18.5485 7.02958 18.5528 7.07458C18.557 7.11957 18.57 7.16329 18.5912 7.20322C18.6124 7.24314 18.6412 7.27849 18.6761 7.30723C18.711 7.33596 18.7512 7.35752 18.7945 7.37066C18.8377 7.38381 18.8831 7.38828 18.9281 7.38381H22.9931C23.0384 7.38445 23.0833 7.37609 23.1253 7.35922C23.1673 7.34235 23.2055 7.3173 23.2377 7.28553C23.2699 7.25376 23.2955 7.21591 23.313 7.17417C23.3305 7.13243 23.3394 7.08763 23.3394 7.04238C23.3394 6.99713 23.3305 6.95233 23.313 6.91059C23.2955 6.86885 23.2699 6.831 23.2377 6.79923C23.2055 6.76746 23.1673 6.74241 23.1253 6.72554C23.0833 6.70867 23.0384 6.70031 22.9931 6.70095H18.9281C18.9068 6.69894 18.8853 6.69894 18.8641 6.70095ZM0.682882 14.3405H13.6572V27.3148H0.682882V14.3405ZM14.3401 14.3405H27.3145V27.3148H14.3401V14.3405ZM20.9659 18.0641C20.5839 18.0641 20.2724 18.3757 20.2724 18.7576C20.2724 19.1396 20.584 19.4512 20.9659 19.4512C21.3479 19.4512 21.6488 19.1396 21.6488 18.7576C21.6488 18.3757 21.3479 18.0641 20.9659 18.0641ZM5.4414 18.4482C5.37362 18.4488 5.30755 18.4695 5.25157 18.5077C5.1956 18.5459 5.15227 18.5999 5.1271 18.6629C5.10193 18.7258 5.09605 18.7948 5.11022 18.8611C5.12439 18.9273 5.15796 18.9879 5.20667 19.035L6.91382 20.7422L5.19601 22.4494C5.16332 22.4808 5.13718 22.5183 5.11909 22.5599C5.10101 22.6015 5.09133 22.6463 5.09063 22.6916C5.08994 22.7369 5.09822 22.7819 5.11502 22.824C5.13181 22.8662 5.15678 22.9045 5.18849 22.9369C5.22019 22.9694 5.25801 22.9952 5.29974 23.0129C5.34147 23.0306 5.3863 23.0398 5.43164 23.0401C5.47698 23.0404 5.52193 23.0318 5.56389 23.0146C5.60586 22.9974 5.644 22.9721 5.67613 22.9402L7.39394 21.233L9.09044 22.9402C9.15431 23.0043 9.24094 23.0406 9.33146 23.0412C9.42198 23.0418 9.50908 23.0066 9.57379 22.9433C9.6385 22.88 9.67559 22.7937 9.67698 22.7032C9.67838 22.6127 9.64397 22.5253 9.58124 22.46L7.87409 20.7529L9.58124 19.0457C9.63355 18.9962 9.66889 18.9315 9.68219 18.8607C9.69549 18.79 9.68609 18.7168 9.65531 18.6517C9.62454 18.5866 9.57398 18.5329 9.51085 18.4983C9.44773 18.4636 9.37527 18.4498 9.30383 18.4589C9.22599 18.47 9.15438 18.5077 9.10111 18.5656L7.39395 20.2621L5.6868 18.5549C5.65519 18.5215 5.61716 18.4949 5.57499 18.4765C5.53282 18.4582 5.48738 18.4486 5.4414 18.4482ZM17.9569 20.3581C17.9119 20.362 17.8681 20.3749 17.828 20.3958C17.788 20.4168 17.7525 20.4454 17.7235 20.4802C17.6946 20.5149 17.6728 20.555 17.6595 20.5981C17.6461 20.6413 17.6414 20.6867 17.6456 20.7317C17.6498 20.7767 17.6629 20.8204 17.684 20.8603C17.7052 20.9003 17.7341 20.9356 17.7689 20.9643C17.8038 20.9931 17.844 21.0146 17.8873 21.0278C17.9305 21.0409 17.9759 21.0454 18.0209 21.0409H23.9C23.9452 21.0416 23.9902 21.0332 24.0321 21.0163C24.0741 20.9995 24.1123 20.9744 24.1446 20.9426C24.1768 20.9109 24.2024 20.873 24.2198 20.8313C24.2373 20.7895 24.2463 20.7447 24.2463 20.6995C24.2463 20.6542 24.2373 20.6095 24.2198 20.5677C24.2024 20.526 24.1768 20.4881 24.1446 20.4563C24.1123 20.4246 24.0741 20.3995 24.0321 20.3827C23.9902 20.3658 23.9452 20.3574 23.9 20.3581H18.0209C17.9996 20.3561 17.9782 20.3561 17.9569 20.3581ZM20.9657 22.1613C20.5838 22.1613 20.2722 22.4728 20.2722 22.8548C20.2722 23.2368 20.5838 23.5483 20.9657 23.5483C21.3477 23.5483 21.6486 23.2368 21.6486 22.8548C21.6486 22.4728 21.3477 22.1613 20.9657 22.1613Z" fill="black"/>
</svg>
