<svg width="50" height="42" viewBox="0 0 50 42" fill="none" xmlns="http://www.w3.org/2000/svg">
<rect x="0.5" y="0.5" width="49" height="41" rx="3.5" stroke="#1CAAE6"/>
<path d="M11.3094 7.00037C11.2245 7.00838 11.1457 7.04785 11.0884 7.11103C11.0312 7.17421 10.9996 7.25654 11 7.34181V34.6562C11 34.7468 11.036 34.8336 11.1 34.8977C11.164 34.9617 11.2509 34.9977 11.3414 34.9977H38.6559C38.7464 34.9977 38.8333 34.9617 38.8973 34.8977C38.9613 34.8336 38.9973 34.7468 38.9973 34.6562V7.34181C38.9973 7.25126 38.9613 7.16441 38.8973 7.10038C38.8333 7.03635 38.7464 7.00038 38.6559 7.00037H11.3414C11.3308 6.99988 11.3201 6.99988 11.3094 7.00037H11.3094ZM11.6829 7.68324H24.6572V20.6576H11.6829V7.68324ZM25.3401 7.68324H38.3145V20.6576H25.3401V7.68324ZM18.266 10.9375C18.183 10.9479 18.1068 10.9885 18.0517 11.0514C17.9967 11.1143 17.9666 11.1953 17.9673 11.2789V13.7009H15.5452C15.5239 13.6989 15.5025 13.6989 15.4812 13.7009C15.4362 13.7049 15.3924 13.7178 15.3523 13.7387C15.3123 13.7597 15.2768 13.7883 15.2479 13.823C15.2189 13.8578 15.1972 13.8979 15.1838 13.941C15.1704 13.9842 15.1657 14.0296 15.1699 14.0746C15.1741 14.1196 15.1872 14.1633 15.2084 14.2032C15.2295 14.2431 15.2584 14.2785 15.2933 14.3072C15.3281 14.336 15.3684 14.3575 15.4116 14.3707C15.4548 14.3838 15.5002 14.3883 15.5452 14.3838H17.9673V16.7952C17.9666 16.8404 17.975 16.8853 17.9918 16.9273C18.0087 16.9693 18.0338 17.0075 18.0655 17.0397C18.0973 17.072 18.1352 17.0975 18.1769 17.115C18.2186 17.1325 18.2634 17.1415 18.3087 17.1415C18.3539 17.1415 18.3987 17.1325 18.4405 17.115C18.4822 17.0975 18.5201 17.072 18.5518 17.0397C18.5836 17.0075 18.6087 16.9693 18.6255 16.9273C18.6424 16.8853 18.6508 16.8404 18.6501 16.7952V14.3838H21.0615C21.1067 14.3845 21.1516 14.3761 21.1936 14.3592C21.2356 14.3423 21.2738 14.3173 21.306 14.2855C21.3383 14.2538 21.3638 14.2159 21.3813 14.1742C21.3988 14.1324 21.4078 14.0876 21.4078 14.0424C21.4078 13.9971 21.3988 13.9523 21.3813 13.9106C21.3638 13.8689 21.3383 13.831 21.306 13.7992C21.2738 13.7675 21.2356 13.7424 21.1936 13.7255C21.1516 13.7087 21.1067 13.7003 21.0615 13.7009H18.6501V11.2789C18.6505 11.2302 18.6405 11.1821 18.6207 11.1376C18.6009 11.0931 18.5719 11.0534 18.5355 11.0211C18.4991 10.9887 18.4563 10.9645 18.4098 10.9501C18.3633 10.9357 18.3143 10.9314 18.266 10.9375ZM29.8641 13.7009C29.819 13.7049 29.7753 13.7178 29.7352 13.7387C29.6952 13.7597 29.6597 13.7883 29.6307 13.823C29.6018 13.8578 29.58 13.8979 29.5666 13.941C29.5533 13.9842 29.5485 14.0296 29.5528 14.0746C29.557 14.1196 29.57 14.1633 29.5912 14.2032C29.6124 14.2431 29.6412 14.2785 29.6761 14.3072C29.711 14.336 29.7512 14.3575 29.7945 14.3707C29.8377 14.3838 29.8831 14.3883 29.9281 14.3838H33.9931C34.0384 14.3845 34.0833 14.3761 34.1253 14.3592C34.1673 14.3423 34.2055 14.3173 34.2377 14.2855C34.2699 14.2538 34.2955 14.2159 34.313 14.1742C34.3305 14.1324 34.3394 14.0876 34.3394 14.0424C34.3394 13.9971 34.3305 13.9523 34.313 13.9106C34.2955 13.8689 34.2699 13.831 34.2377 13.7992C34.2055 13.7675 34.1673 13.7424 34.1253 13.7255C34.0833 13.7087 34.0384 13.7003 33.9931 13.7009H29.9281C29.9068 13.6989 29.8853 13.6989 29.8641 13.7009ZM11.6829 21.3405H24.6572V34.3148H11.6829V21.3405ZM25.3401 21.3405H38.3145V34.3148H25.3401V21.3405ZM31.9659 25.0641C31.5839 25.0641 31.2724 25.3757 31.2724 25.7576C31.2724 26.1396 31.584 26.4512 31.9659 26.4512C32.3479 26.4512 32.6488 26.1396 32.6488 25.7576C32.6488 25.3757 32.3479 25.0641 31.9659 25.0641ZM16.4414 25.4482C16.3736 25.4488 16.3075 25.4695 16.2516 25.5077C16.1956 25.5459 16.1523 25.5999 16.1271 25.6629C16.1019 25.7258 16.0961 25.7948 16.1102 25.8611C16.1244 25.9273 16.158 25.9879 16.2067 26.035L17.9138 27.7422L16.196 29.4494C16.1633 29.4808 16.1372 29.5183 16.1191 29.5599C16.101 29.6015 16.0913 29.6463 16.0906 29.6916C16.0899 29.7369 16.0982 29.7819 16.115 29.824C16.1318 29.8662 16.1568 29.9045 16.1885 29.9369C16.2202 29.9694 16.258 29.9952 16.2997 30.0129C16.3415 30.0306 16.3863 30.0398 16.4316 30.0401C16.477 30.0404 16.5219 30.0318 16.5639 30.0146C16.6059 29.9974 16.644 29.9721 16.6761 29.9402L18.3939 28.233L20.0904 29.9402C20.1543 30.0043 20.2409 30.0406 20.3315 30.0412C20.422 30.0418 20.5091 30.0066 20.5738 29.9433C20.6385 29.88 20.6756 29.7937 20.677 29.7032C20.6784 29.6127 20.644 29.5253 20.5812 29.46L18.8741 27.7529L20.5812 26.0457C20.6336 25.9962 20.6689 25.9315 20.6822 25.8607C20.6955 25.79 20.6861 25.7168 20.6553 25.6517C20.6245 25.5866 20.574 25.5329 20.5109 25.4983C20.4477 25.4636 20.3753 25.4498 20.3038 25.4589C20.226 25.47 20.1544 25.5077 20.1011 25.5656L18.394 27.2621L16.6868 25.5549C16.6552 25.5215 16.6172 25.4949 16.575 25.4765C16.5328 25.4582 16.4874 25.4486 16.4414 25.4482ZM28.9569 27.3581C28.9119 27.362 28.8681 27.3749 28.828 27.3958C28.788 27.4168 28.7525 27.4454 28.7235 27.4802C28.6946 27.5149 28.6728 27.555 28.6595 27.5981C28.6461 27.6413 28.6414 27.6867 28.6456 27.7317C28.6498 27.7767 28.6629 27.8204 28.684 27.8603C28.7052 27.9003 28.7341 27.9356 28.7689 27.9643C28.8038 27.9931 28.844 28.0146 28.8873 28.0278C28.9305 28.0409 28.9759 28.0454 29.0209 28.0409H34.9C34.9452 28.0416 34.9902 28.0332 35.0321 28.0163C35.0741 27.9995 35.1123 27.9744 35.1446 27.9426C35.1768 27.9109 35.2024 27.873 35.2198 27.8313C35.2373 27.7895 35.2463 27.7447 35.2463 27.6995C35.2463 27.6542 35.2373 27.6095 35.2198 27.5677C35.2024 27.526 35.1768 27.4881 35.1446 27.4563C35.1123 27.4246 35.0741 27.3995 35.0321 27.3827C34.9902 27.3658 34.9452 27.3574 34.9 27.3581H29.0209C28.9996 27.3561 28.9782 27.3561 28.9569 27.3581ZM31.9657 29.1613C31.5838 29.1613 31.2722 29.4728 31.2722 29.8548C31.2722 30.2368 31.5838 30.5483 31.9657 30.5483C32.3477 30.5483 32.6486 30.2368 32.6486 29.8548C32.6486 29.4728 32.3477 29.1613 31.9657 29.1613Z" fill="black"/>
</svg>
