<svg width="45" height="45" viewBox="0 0 45 45" fill="none" xmlns="http://www.w3.org/2000/svg">
<g clip-path="url(#clip0)">
<path d="M0.14272 4.12805L3.14386 9.37974C3.24509 9.5572 3.41453 9.68559 3.61267 9.73528L6.41259 10.4353L16.0157 20.0384L17.0768 18.9776L7.32336 9.22449C7.22738 9.1282 7.10701 9.05999 6.97522 9.02697L4.28487 8.35199L1.72971 3.87806L3.92038 1.68739L8.39617 4.24502L9.07145 6.93537C9.10417 7.06746 9.17268 7.18814 9.26867 7.28412L19.0221 17.0375L20.0828 15.9764L10.4797 6.37335L9.77977 3.57498C9.73007 3.37653 9.60168 3.20678 9.42422 3.10524L4.17222 0.10441C3.87933 -0.062251 3.51082 -0.0128698 3.27194 0.225086L0.271111 3.22623C0.0297608 3.46356 -0.0227067 3.83269 0.14272 4.12805Z" fill="#1CAAE6"/>
<path d="M31.336 14.7864L14.8306 31.292L13.7695 30.2309L30.2752 13.7256L31.336 14.7864Z" fill="#1CAAE6"/>
<path d="M11.9424 31.8758C11.8066 31.6499 11.5628 31.512 11.2992 31.512H6.79778C6.53452 31.512 6.29039 31.6499 6.1549 31.8758L3.90405 35.627C3.76115 35.8646 3.76115 36.1618 3.90405 36.3998L6.1549 40.1509C6.29039 40.3765 6.53452 40.5148 6.79778 40.5148H11.2992C11.5628 40.5148 11.8066 40.3765 11.9424 40.1509L14.1929 36.3998C14.3358 36.1618 14.3358 35.8646 14.1929 35.627L11.9424 31.8758ZM10.8748 39.0142H7.22246L5.4219 36.0134L7.22246 33.0122H10.8748L12.6754 36.0134L10.8748 39.0142Z" fill="#1CAAE6"/>
<path d="M36.0548 18.0074C41.0099 18.0241 45.0406 14.0205 45.0573 9.06544C45.0598 8.31114 44.9672 7.55993 44.7817 6.82878C44.6817 6.42663 44.2746 6.18189 43.8725 6.28188C43.7404 6.31491 43.62 6.38311 43.5237 6.4791L38.8535 11.1462L35.148 9.9114L33.9123 6.20689L38.5825 1.53574C38.8754 1.24254 38.8751 0.767551 38.5819 0.474659C38.4853 0.378057 38.3637 0.309541 38.2307 0.276826C33.4253 -0.940111 28.5436 1.96875 27.3267 6.77384C27.1418 7.50283 27.0495 8.25219 27.052 9.00433C27.0539 9.59505 27.1147 10.1839 27.2344 10.7623L10.8037 27.1926C10.2254 27.0732 9.6365 27.0124 9.04608 27.0102C4.07371 27.0102 0.0429688 31.041 0.0429688 36.0134C0.0429688 40.9854 4.07371 45.0162 9.04608 45.0162C14.0182 45.0162 18.0489 40.9854 18.0489 36.0134C18.047 35.4226 17.9859 34.8338 17.8665 34.2554L21.8 30.3219L23.5203 32.0422C23.8135 32.3351 24.2882 32.3351 24.5814 32.0422L24.9564 31.6669C25.2854 31.34 25.8172 31.34 26.1462 31.6669C26.4749 31.9947 26.4755 32.5267 26.1477 32.8554C26.1474 32.8557 26.1468 32.8564 26.1462 32.857L25.7712 33.232C25.4783 33.5249 25.4783 33.9998 25.7712 34.2927L34.7209 43.2424C37.0748 45.618 40.9087 45.6353 43.2842 43.2813C45.6594 40.9274 45.6767 37.0933 43.3228 34.718C43.3101 34.7051 43.2972 34.6921 43.2842 34.6791L34.3345 25.7297C34.0416 25.4368 33.5666 25.4368 33.2737 25.7297L32.8987 26.1047C32.5694 26.4319 32.038 26.4319 31.7086 26.1047C31.3803 25.7769 31.3793 25.2449 31.7071 24.9165C31.7077 24.9159 31.7083 24.9156 31.7086 24.9149L32.0839 24.5396C32.3768 24.2467 32.3768 23.7718 32.0839 23.4789L30.3636 21.7586L34.2971 17.825C34.8755 17.9445 35.4644 18.0056 36.0548 18.0074ZM39.0026 43.5159C38.4575 43.515 37.9171 43.4165 37.4069 43.2249L43.2663 37.3652C44.1505 39.7172 42.9608 42.3406 40.6087 43.2249C40.0954 43.4177 39.5513 43.5165 39.0026 43.5159ZM30.5031 24.0168C29.6723 25.0078 29.8025 26.485 30.7936 27.3155C31.6645 28.0454 32.9339 28.0448 33.804 27.3133L42.2234 35.7402C42.3148 35.8319 42.4003 35.9285 42.483 36.0266L36.0684 42.4412C35.9699 42.3588 35.8733 42.2733 35.7817 42.1817L27.3557 33.7551C28.1865 32.7641 28.0563 31.287 27.0653 30.4564C26.1943 29.7262 24.9246 29.7271 24.0546 30.4583L22.8543 29.258L29.3026 22.8193L30.5031 24.0168ZM33.5327 16.4711L16.5131 33.4872C16.3264 33.6736 16.2514 33.9443 16.315 34.2001C17.3443 38.2423 14.9018 42.3536 10.8593 43.3826C6.81714 44.4118 2.70585 41.9693 1.67656 37.9269C0.647579 33.8847 3.0901 29.7734 7.13256 28.7441C8.35536 28.433 9.6365 28.433 10.8593 28.7441C11.1152 28.8068 11.3852 28.7318 11.5722 28.5463L28.5878 11.5299C28.7742 11.3435 28.8492 11.0728 28.785 10.8172C27.7628 6.8223 30.1726 2.75514 34.1675 1.73264C34.9224 1.53975 35.7033 1.46568 36.481 1.51413L32.5234 5.47327C32.3225 5.67388 32.2522 5.97109 32.342 6.24053L33.8422 10.7422C33.9172 10.966 34.0931 11.1419 34.3172 11.2163L38.8189 12.7169C39.088 12.8067 39.3853 12.7366 39.5862 12.536L43.5438 8.57842C43.5527 8.72162 43.5574 8.86328 43.5574 9.00433C43.5783 13.1267 40.2538 16.4856 36.1314 16.5069C35.494 16.51 34.8589 16.4316 34.2416 16.2735C33.9857 16.2097 33.7151 16.2843 33.5287 16.4708H33.5327V16.4711Z" fill="#1CAAE6"/>
<path d="M38.8368 37.7334L37.7757 38.7945L30.2734 31.2923L31.3342 30.2312L38.8368 37.7334Z" fill="#1CAAE6"/>
</g>
<defs>
<clipPath id="clip0">
<rect width="45" height="45" fill="white"/>
</clipPath>
</defs>
</svg>
