<svg width="47" height="45" viewBox="0 0 47 45" fill="none" xmlns="http://www.w3.org/2000/svg">
<path d="M38.5135 7.9455V3.75C38.5108 1.68 36.7881 0.002625 34.6622 0H3.85135C1.72541 0.002625 0.00269595 1.68 0 3.75V20.25C0.00596961 22.1653 1.49702 23.7671 3.45389 23.9614L6.34934 31.2797C7.11422 33.2121 9.34299 34.1747 11.3278 33.4309L29.4089 26.649C28.1595 29.8266 28.515 33.3911 30.3683 36.2754L30.8108 36.9645V44.25C30.8108 44.6644 31.1555 45 31.5811 45H45.4459C45.8715 45 46.2162 44.6644 46.2162 44.25V19.4934C46.2089 16.8997 45.1484 14.4146 43.2651 12.5803L38.5135 7.9455ZM38.5135 12.4309L40.8513 18.3398C41.3094 19.4996 40.7157 20.8011 39.5247 21.2475L38.1885 21.75C38.4018 21.2771 38.5124 20.766 38.5135 20.25V12.4309ZM1.54054 20.25V3.75C1.54054 2.50763 2.5754 1.5 3.85135 1.5H34.6622C35.9381 1.5 36.973 2.50763 36.973 3.75V8.517H36.9662L36.973 8.53406V20.25C36.967 20.3809 36.9495 20.5106 36.9206 20.6385L29.8649 13.7677C28.2789 12.2591 25.7505 12.2475 24.1503 13.7404C22.5497 15.2342 22.4536 17.6942 23.9338 19.3011L26.9417 22.5H3.85135C2.5754 22.5 1.54054 21.4924 1.54054 20.25ZM11.4085 24L5.93108 26.0533L5.12076 24H11.4085ZM10.7738 32.0308C9.58293 32.4778 8.24555 31.8997 7.78666 30.7402L6.48722 27.45L15.6819 24V23.9955H28.3536L29.3548 25.0583L10.7738 32.0308ZM44.6757 43.5H32.3514V37.5H44.6757V43.5ZM44.6757 36H32.0086L31.6745 35.4803C29.7964 32.5579 29.7216 28.8668 31.4794 25.875C31.6458 25.5919 31.605 25.2364 31.3785 24.996L25.0663 18.291C24.1251 17.2879 24.178 15.7371 25.1857 14.7975C26.1938 13.8577 27.7873 13.8731 28.7756 14.8316L41.05 26.7803L42.1392 25.7197L39.2892 22.9447L40.0795 22.6448C42.0625 21.8998 43.0508 19.7316 42.2878 17.7996L39.6807 11.2078L42.176 13.6425C43.7704 15.1946 44.6695 17.298 44.6757 19.4934V36Z" fill="#1CAAE6"/>
<path d="M8.78203 10.5C9.88814 10.5 10.7847 9.627 10.7847 8.55V4.95C10.7847 3.873 9.88814 3 8.78203 3H5.08473C3.97863 3 3.08203 3.873 3.08203 4.95V8.55C3.08203 9.627 3.97863 10.5 5.08473 10.5H8.78203ZM4.62257 8.55V7.5H6.16311V6H4.62257V4.95C4.62257 4.70156 4.82958 4.5 5.08473 4.5H8.78203C9.03719 4.5 9.2442 4.70156 9.2442 4.95V6H7.70365V7.5H9.2442V8.55C9.2442 8.79844 9.03719 9 8.78203 9H5.08473C4.82958 9 4.62257 8.79844 4.62257 8.55Z" fill="#1CAAE6"/>
<path d="M3.85156 12.75H6.93264V14.25H3.85156V12.75Z" fill="#1CAAE6"/>
<path d="M3.85156 17.25H6.93264V18.75H3.85156V17.25Z" fill="#1CAAE6"/>
<path d="M17.7148 17.25H20.7959V18.75H17.7148V17.25Z" fill="#1CAAE6"/>
<path d="M8.47266 12.75H11.5537V14.25H8.47266V12.75Z" fill="#1CAAE6"/>
<path d="M13.0938 12.75H16.1748V14.25H13.0938V12.75Z" fill="#1CAAE6"/>
<path d="M17.7148 12.75H20.7959V14.25H17.7148V12.75Z" fill="#1CAAE6"/>
<path d="M32.3516 3.75H33.8921V6H32.3516V3.75Z" fill="#1CAAE6"/>
<path d="M29.2695 3.75H30.8101V6H29.2695V3.75Z" fill="#1CAAE6"/>
<path d="M26.1875 3.75H27.728V6H26.1875V3.75Z" fill="#1CAAE6"/>
<path d="M23.1094 3.75H24.6499V6H23.1094V3.75Z" fill="#1CAAE6"/>
<path d="M33.8906 39H35.4312V40.5H33.8906V39Z" fill="#1CAAE6"/>
</svg>
