<svg width="45" height="45" viewBox="0 0 45 45" fill="none" xmlns="http://www.w3.org/2000/svg">
<path d="M41.4925 39.4244L34.6009 27.4893C37.2959 24.5632 38.913 20.6747 38.913 16.4012C38.913 11.8581 37.0649 7.77707 34.1004 4.81255C31.1359 1.84802 27.0549 0 22.5118 0C17.9688 0 13.8877 1.84802 10.9232 4.81255C7.95867 7.77707 6.11065 11.8581 6.11065 16.4012C6.11065 20.6747 7.72766 24.5632 10.4227 27.4893L3.53112 39.4244C3.41562 39.6169 3.37712 39.8864 3.45412 40.1559C3.60812 40.5794 4.07013 40.7719 4.49363 40.6179L9.99919 38.4234L10.8462 44.3139C10.8847 44.5449 11.0002 44.7759 11.2312 44.8914C11.6162 45.1224 12.1167 44.9684 12.3477 44.5834L19.3163 32.5328C20.3173 32.7253 21.3953 32.8408 22.4348 32.8408C23.5128 32.8408 24.5523 32.7253 25.5533 32.5328L32.5219 44.5834C32.7529 44.9684 33.2534 45.0839 33.6384 44.8914C33.8694 44.7759 33.9849 44.5449 34.0234 44.3139L34.8704 38.4234L40.376 40.6179C40.7995 40.7719 41.2615 40.5794 41.4155 40.1559C41.6465 39.8864 41.608 39.6169 41.4925 39.4244ZM12.1937 41.7344L11.5007 37.1529C11.4237 36.7294 11.0387 36.4213 10.5767 36.4598C10.4997 36.4598 10.4227 36.4983 10.3457 36.5368L6.07215 38.2309L11.6162 28.6443C13.3487 30.1843 15.4277 31.3778 17.7378 32.0708L12.1937 41.7344ZM22.5118 31.1853C18.4308 31.1853 14.7347 29.5298 12.0782 26.8733C9.42168 24.2167 7.76616 20.5207 7.76616 16.4397C7.76616 12.3586 9.42168 8.66258 12.0782 6.00606C14.7347 3.27253 18.4308 1.61702 22.5118 1.61702C26.5928 1.61702 30.2889 3.27253 32.9454 5.92906C35.6019 8.58558 37.2575 12.2816 37.2575 16.3627C37.2575 20.4437 35.6019 24.1397 32.9454 26.7963C30.2889 29.5298 26.5928 31.1853 22.5118 31.1853ZM34.6779 36.5368C34.6009 36.4983 34.5239 36.4598 34.4469 36.4598C34.0234 36.3828 33.5999 36.6909 33.5229 37.1529L32.8299 41.7344L27.2859 32.0708C29.5959 31.3778 31.6749 30.1843 33.4074 28.6443L38.9515 38.2309L34.6779 36.5368Z" fill="#1CAAE6"/>
<path d="M30.0579 13.5521C29.8654 13.2826 29.6344 13.0901 29.3649 12.9746C29.0954 12.8591 28.7874 12.7821 28.4794 12.8206H25.2839L24.2829 9.66358C24.1289 9.20157 23.7824 8.81657 23.3974 8.58557C23.1279 8.47007 22.8584 8.39307 22.5504 8.39307C22.2424 8.39307 21.9729 8.47007 21.7034 8.58557C21.2799 8.81657 20.9719 9.16307 20.8179 9.66358L19.8169 12.8206H16.6213C16.3133 12.7821 16.0053 12.8591 15.7358 12.9746C15.4663 13.0901 15.2353 13.2826 15.0428 13.5521C14.7348 13.9756 14.6578 14.4376 14.7348 14.8996C14.8118 15.3616 15.0428 15.7851 15.4663 16.0931L18.1613 18.0182L17.1218 21.1752C17.1218 21.2137 17.1218 21.2522 17.0833 21.2522C17.0063 21.4832 17.0063 21.7527 17.0448 22.0222C17.0833 22.2917 17.1988 22.5612 17.3913 22.7922C17.6993 23.2157 18.1228 23.4467 18.5848 23.5237C19.0468 23.6007 19.5473 23.4852 19.9324 23.1772L22.6274 21.2137L25.3224 23.1772C25.7459 23.4852 26.2079 23.5622 26.6699 23.5237C27.1319 23.4467 27.5554 23.2157 27.8634 22.7922C28.0559 22.5612 28.1329 22.2917 28.2099 22.0222C28.2484 21.7527 28.2484 21.5217 28.1714 21.2522C28.1714 21.2137 28.1714 21.1752 28.1329 21.1752L27.0934 18.0182L29.7884 16.0931C30.2119 15.7851 30.443 15.3616 30.52 14.8996C30.4815 14.4761 30.366 13.9756 30.0579 13.5521ZM28.7104 14.7841L28.6719 14.8226L25.5534 17.0941C25.2839 17.2867 25.1299 17.6717 25.2454 17.9797L26.4389 21.6372V21.6757C26.4389 21.7142 26.4389 21.7527 26.4389 21.7912C26.4389 21.8297 26.4389 21.8682 26.4004 21.8682C26.3619 21.9067 26.3234 21.9452 26.2464 21.9452C26.2079 21.9452 26.1309 21.9452 26.0924 21.9067L22.9354 19.5967C22.7814 19.4812 22.6274 19.4427 22.4349 19.4427C22.2809 19.4427 22.0884 19.4812 21.9344 19.5967L18.7773 21.9067C18.7388 21.9452 18.6618 21.9452 18.6233 21.9452C18.5848 21.9452 18.5078 21.9067 18.4693 21.8682C18.4308 21.8297 18.4308 21.7912 18.4308 21.7912C18.4308 21.7527 18.4308 21.7142 18.4308 21.6757V21.6372L19.6243 17.9797C19.7399 17.6332 19.6244 17.2867 19.3163 17.0941L16.3518 14.8226L16.3133 14.7841C16.2748 14.7456 16.2363 14.7071 16.2363 14.6686C16.2363 14.6301 16.2363 14.5531 16.2748 14.5146C16.2748 14.5146 16.2748 14.4761 16.3133 14.4761C16.3518 14.4376 16.3518 14.4376 16.3903 14.4376C16.4288 14.4376 16.4673 14.3991 16.5058 14.3991C16.5443 14.3991 16.5828 14.3991 16.6213 14.3991H20.3944C20.7409 14.3991 21.0489 14.1681 21.1644 13.8216L22.3579 10.1256C22.3579 10.0871 22.3964 10.0101 22.4734 10.0101C22.5119 10.0101 22.5504 9.97158 22.5504 9.97158C22.5889 9.97158 22.6274 9.97158 22.6274 10.0101C22.6659 10.0486 22.7044 10.0871 22.7429 10.1256L23.9364 13.8216C24.0519 14.1296 24.3599 14.3991 24.7064 14.3991H28.4794C28.5179 14.3991 28.5564 14.3991 28.5949 14.3991C28.6334 14.3991 28.6719 14.3991 28.7104 14.4376C28.7489 14.4376 28.7489 14.4761 28.7874 14.4761C28.7874 14.4761 28.7874 14.5146 28.8259 14.5146C28.8644 14.5531 28.8644 14.5916 28.8644 14.6686C28.7874 14.7071 28.7489 14.7456 28.7104 14.7841Z" fill="#1CAAE6"/>
<path d="M31.5602 7.35368C29.2502 5.04365 26.0546 3.61914 22.5126 3.61914C18.9706 3.61914 15.775 5.04365 13.465 7.35368C11.155 9.6637 9.73047 12.8592 9.73047 16.4013C9.73047 19.9433 11.155 23.1388 13.465 25.4488C15.775 27.7589 18.9706 29.1834 22.5126 29.1834C26.0546 29.1834 29.2502 27.7589 31.5602 25.4488C33.8702 23.1388 35.2947 19.9433 35.2947 16.4013C35.2947 12.8592 33.8702 9.6637 31.5602 7.35368ZM30.4437 24.2938C28.4032 26.3344 25.5926 27.5664 22.5126 27.5664C19.4326 27.5664 16.622 26.2959 14.62 24.2938C12.5795 22.2533 11.3475 19.4813 11.3475 16.4013C11.3475 13.3212 12.618 10.5107 14.62 8.50869C16.622 6.46817 19.4326 5.19766 22.5126 5.19766C25.5926 5.19766 28.4031 6.46817 30.4052 8.47019C32.4457 10.5107 33.6777 13.2827 33.6777 16.3628C33.6777 19.4428 32.4457 22.2918 30.4437 24.2938Z" fill="#1CAAE6"/>
</svg>
