<svg width="49" height="35" viewBox="0 0 49 35" fill="none" xmlns="http://www.w3.org/2000/svg">
<path d="M11.4344 26.4834C10.0813 26.4834 8.98438 27.5803 8.98438 28.9334C8.98438 30.2864 10.0812 31.3834 11.4344 31.3834C12.7875 31.3834 13.8844 30.2865 13.8844 28.9334C13.8828 27.5809 12.7869 26.4848 11.4344 26.4834ZM11.4344 29.75C10.9833 29.75 10.6177 29.3844 10.6177 28.9334C10.6177 28.4823 10.9833 28.1168 11.4344 28.1168C11.8854 28.1168 12.251 28.4823 12.251 28.9334C12.2505 29.3843 11.8852 29.7496 11.4344 29.75Z" fill="#1CAAE6"/>
<path d="M37.5672 26.4834C36.2141 26.4834 35.1172 27.5803 35.1172 28.9334C35.1172 30.2864 36.2141 31.3834 37.5672 31.3834C38.9202 31.3834 40.0172 30.2865 40.0172 28.9334C40.0158 27.5809 38.9197 26.4848 37.5672 26.4834ZM37.5672 29.75C37.1161 29.75 36.7506 29.3844 36.7506 28.9334C36.7506 28.4823 37.1162 28.1168 37.5672 28.1168C38.0182 28.1168 38.3838 28.4823 38.3838 28.9334C38.3834 29.3843 38.018 29.7496 37.5672 29.75Z" fill="#1CAAE6"/>
<path d="M48.3775 14.8587L42.7518 8.52314C42.2858 7.99831 41.617 7.69866 40.9151 7.7001H33.4834V2.8001C33.4819 1.44762 32.3858 0.351533 31.0334 0.350098H2.45C1.09752 0.351533 0.00143563 1.44762 7.97558e-08 2.8001V24.0335C-9.56234e-05 24.25 0.0859415 24.4578 0.239162 24.611C0.392287 24.7642 0.600059 24.8502 0.816731 24.8502H1.63337V27.3002C1.6348 28.6527 2.73089 29.7488 4.08337 29.7502H5.7819C6.18443 32.562 8.5929 34.6502 11.4334 34.6502C14.2738 34.6502 16.6823 32.562 17.0848 29.7502H31.9154C32.3179 32.562 34.7264 34.6502 37.5668 34.6502C40.4073 34.6502 42.8158 32.562 43.2183 29.7502H46.55C47.9025 29.7488 48.9986 28.6527 49 27.3002V16.4873C48.9994 15.8864 48.7779 15.3068 48.3775 14.8587ZM1.63337 23.2167V2.8001C1.63384 2.34924 1.99914 1.98385 2.45 1.98346H31.0334C31.4842 1.98394 31.8496 2.34924 31.85 2.8001V23.2167H1.63337ZM5.7819 28.1167H4.08337C3.63251 28.1163 3.26711 27.751 3.26673 27.3001V24.8501H7.44034C6.54322 25.7269 5.9603 26.8751 5.7819 28.1167ZM11.4334 33.0167C9.17822 33.0167 7.35 31.1885 7.35 28.9334C7.35 26.6782 9.17822 24.8501 11.4334 24.8501C13.6885 24.8501 15.5167 26.6783 15.5167 28.9335C15.5141 31.1875 13.6874 33.0141 11.4334 33.0167ZM19.6 28.1167H17.0847C16.9063 26.8751 16.3235 25.7268 15.4264 24.8501H19.6V28.1167ZM26.95 28.1167H21.2334V24.8501H26.95V28.1167ZM31.9153 28.1167H28.5834V24.8501H33.5736C32.6765 25.7269 32.0937 26.8751 31.9153 28.1167ZM37.5666 33.0167C35.3115 33.0167 33.4833 31.1885 33.4833 28.9334C33.4833 26.6782 35.3114 24.85 37.5666 24.85C39.8218 24.85 41.65 26.6782 41.65 28.9334C41.6473 31.1875 39.8207 33.0141 37.5666 33.0167ZM47.3666 27.3001C47.3662 27.751 47.0009 28.1163 46.55 28.1167H43.2181C42.8109 25.3076 40.4053 23.2218 37.5666 23.2167H33.4833V9.33346H36.75V17.5001C36.7514 18.8526 37.8475 19.9487 39.2 19.9501H47.3666V27.3001ZM47.3666 18.3167H39.2C38.7491 18.3163 38.3837 17.951 38.3834 17.5001V9.33346H40.9151C41.1496 9.33212 41.3733 9.43146 41.5296 9.60622L47.1573 15.9442C47.2913 16.0935 47.3658 16.2867 47.3667 16.4873V18.3167H47.3666Z" fill="#1CAAE6"/>
</svg>
