<svg width="44" height="44" viewBox="0 0 44 44" fill="none" xmlns="http://www.w3.org/2000/svg">
<g clip-path="url(#clip0)">
<path d="M41.7999 29.3332H34.6953L40.8448 25.7823C41.3517 25.4922 41.7223 25.0125 41.8747 24.4485C42.0275 23.8846 41.9492 23.2834 41.6575 22.7775L36.5228 13.8863C36.2304 13.3807 35.7487 13.0121 35.1844 12.8621C34.6201 12.709 34.0178 12.7896 33.5136 13.0853L27.3627 16.6373L30.9127 10.4894C31.2074 9.98386 31.2883 9.38162 31.1379 8.81598C30.9875 8.25034 30.6176 7.76794 30.1107 7.47589L21.2209 2.34113C20.715 2.05042 20.1144 1.97287 19.5515 2.12527C18.9885 2.27768 18.5091 2.64728 18.2188 3.15317L14.6668 9.30609V2.20013C14.6654 0.985596 13.6812 0.00134277 12.4666 0H2.20013C0.985596 0.00134277 0.00134277 0.985596 0 2.20013V41.7999C0.00134277 43.0144 0.985596 43.9987 2.20013 44H41.7999C43.0144 43.9987 43.9987 43.0144 44 41.7999V31.5334C43.9987 30.3188 43.0144 29.3346 41.7999 29.3332ZM2.20013 29.3332C1.94971 29.3359 1.70163 29.3816 1.46664 29.4685V22H7.33759L3.10382 29.3332H2.20013ZM31.762 29.3332H21.7338L18.3742 23.5214L25.9941 19.1214L31.858 29.2782L31.762 29.3332ZM24.8215 18.1046L16.1398 23.1182L10.3242 19.7603L14.7225 12.1424L24.8786 18.0059L24.8215 18.1046ZM13.2001 11.8459L8.69379 19.6515C8.69144 19.6552 8.68774 19.6569 8.68539 19.6609L8.68137 19.6726L8.18454 20.5334H1.46664V11.7335H13.2001V11.8459ZM9.59109 21.0305L14.6732 23.9651L5.3768 29.3332H4.79739L9.59109 21.0305ZM16.497 24.6057L16.5064 24.6003L17.1042 24.2549L20.0399 29.3332H8.31009L16.497 24.6057ZM13.2001 30.7999H22V42.5334H13.2001V30.7999ZM23.4666 30.7999H32.2665V42.5334H23.4666V30.7999ZM34.2498 14.3539C34.417 14.2552 34.6174 14.228 34.805 14.2784C34.9944 14.3294 35.1558 14.4529 35.2545 14.6225L40.3863 23.5089C40.4839 23.6778 40.5101 23.8785 40.4588 24.0669C40.4074 24.2549 40.2832 24.415 40.1133 24.5107L33.1279 28.544L27.2643 18.3876L34.2498 14.3539ZM19.4904 3.88431C19.5864 3.71579 19.7458 3.59225 19.9335 3.54123C20.1208 3.4902 20.3209 3.51572 20.4894 3.6124L29.3745 8.74414C29.5454 8.8425 29.6703 9.00464 29.7216 9.19498C29.772 9.38397 29.7441 9.58505 29.6441 9.75323L25.6124 16.7357L15.456 10.8721L19.4904 3.88431ZM2.20013 1.46664H12.4666C12.8715 1.46732 13.1995 1.79529 13.2001 2.20013V10.2665H1.46664V2.20013C1.46732 1.79529 1.79529 1.46732 2.20013 1.46664ZM1.46664 41.7999V31.5334C1.46732 31.1285 1.79529 30.8005 2.20013 30.7999H11.7335V42.5334H2.20013C1.79529 42.5327 1.46732 42.2047 1.46664 41.7999ZM42.5334 41.7999C42.5327 42.2047 42.2047 42.5327 41.7999 42.5334H33.7335V30.7999H41.7999C42.2047 30.8005 42.5327 31.1285 42.5334 31.5334V41.7999Z" fill="#1CAAE6"/>
<path d="M7.33173 33.7334C5.71167 33.7334 4.39844 35.0466 4.39844 36.6667C4.39844 38.2867 5.71167 39.6 7.33173 39.6C8.95178 39.6 10.265 38.2867 10.265 36.6667C10.2633 35.0473 8.95111 33.7351 7.33173 33.7334ZM7.33173 38.1333C6.5217 38.1333 5.86508 37.4767 5.86508 36.6667C5.86508 35.8567 6.5217 35.2 7.33173 35.2C8.14175 35.2 8.79837 35.8567 8.79837 36.6667C8.7977 37.4764 8.14142 38.1323 7.33173 38.1333Z" fill="#1CAAE6"/>
</g>
<defs>
<clipPath id="clip0">
<rect width="44" height="44" fill="white"/>
</clipPath>
</defs>
</svg>
