<svg width="21" height="21" viewBox="0 0 21 21" fill="none" xmlns="http://www.w3.org/2000/svg">
<path d="M19.3594 1.96875H17.7188V1.64062C17.7188 1.37955 17.615 1.12917 17.4304 0.944567C17.2458 0.759961 16.9954 0.65625 16.7344 0.65625H16.0781C15.8171 0.65625 15.5667 0.759961 15.3821 0.944567C15.1975 1.12917 15.0938 1.37955 15.0938 1.64062V1.96875H5.90625V1.64062C5.90625 1.37955 5.80254 1.12917 5.61793 0.944567C5.43333 0.759961 5.18295 0.65625 4.92188 0.65625H4.26562C4.00455 0.65625 3.75417 0.759961 3.56957 0.944567C3.38496 1.12917 3.28125 1.37955 3.28125 1.64062V1.96875H1.64062C1.37955 1.96875 1.12917 2.07246 0.944567 2.25707C0.759961 2.44167 0.65625 2.69205 0.65625 2.95312V19.3594C0.65625 19.6204 0.759961 19.8708 0.944567 20.0554C1.12917 20.24 1.37955 20.3438 1.64062 20.3438H19.3594C19.6204 20.3438 19.8708 20.24 20.0554 20.0554C20.24 19.8708 20.3438 19.6204 20.3438 19.3594V2.95312C20.3438 2.69205 20.24 2.44167 20.0554 2.25707C19.8708 2.07246 19.6204 1.96875 19.3594 1.96875ZM15.75 1.64062C15.75 1.5536 15.7846 1.47014 15.8461 1.40861C15.9076 1.34707 15.9911 1.3125 16.0781 1.3125H16.7344C16.8214 1.3125 16.9049 1.34707 16.9664 1.40861C17.0279 1.47014 17.0625 1.5536 17.0625 1.64062V3.60938C17.0625 3.6964 17.0279 3.77986 16.9664 3.84139C16.9049 3.90293 16.8214 3.9375 16.7344 3.9375H16.0781C15.9911 3.9375 15.9076 3.90293 15.8461 3.84139C15.7846 3.77986 15.75 3.6964 15.75 3.60938V1.64062ZM3.9375 1.64062C3.9375 1.5536 3.97207 1.47014 4.03361 1.40861C4.09514 1.34707 4.1786 1.3125 4.26562 1.3125H4.92188C5.0089 1.3125 5.09236 1.34707 5.15389 1.40861C5.21543 1.47014 5.25 1.5536 5.25 1.64062V3.60938C5.25 3.6964 5.21543 3.77986 5.15389 3.84139C5.09236 3.90293 5.0089 3.9375 4.92188 3.9375H4.26562C4.1786 3.9375 4.09514 3.90293 4.03361 3.84139C3.97207 3.77986 3.9375 3.6964 3.9375 3.60938V1.64062ZM1.3125 2.95312C1.3125 2.8661 1.34707 2.78264 1.40861 2.72111C1.47014 2.65957 1.5536 2.625 1.64062 2.625H3.28125V3.60938C3.28125 3.87045 3.38496 4.12083 3.56957 4.30543C3.75417 4.49004 4.00455 4.59375 4.26562 4.59375H4.92188C5.18295 4.59375 5.43333 4.49004 5.61793 4.30543C5.80254 4.12083 5.90625 3.87045 5.90625 3.60938V2.625H15.0938V3.60938C15.0938 3.87045 15.1975 4.12083 15.3821 4.30543C15.5667 4.49004 15.8171 4.59375 16.0781 4.59375H16.7344C16.9954 4.59375 17.2458 4.49004 17.4304 4.30543C17.615 4.12083 17.7188 3.87045 17.7188 3.60938V2.625H19.3594C19.4464 2.625 19.5299 2.65957 19.5914 2.72111C19.6529 2.78264 19.6875 2.8661 19.6875 2.95312V5.25H1.3125V2.95312ZM19.6875 19.3594C19.6875 19.4464 19.6529 19.5299 19.5914 19.5914C19.5299 19.6529 19.4464 19.6875 19.3594 19.6875H1.64062C1.5536 19.6875 1.47014 19.6529 1.40861 19.5914C1.34707 19.5299 1.3125 19.4464 1.3125 19.3594V5.90625H19.6875V19.3594Z" fill="#1CAAE6"/>
<path d="M11.1562 13.7812H9.84375C9.75673 13.7812 9.67327 13.7467 9.61173 13.6851C9.55019 13.6236 9.51562 13.5401 9.51562 13.4531V12.1406C9.51562 12.0536 9.55019 11.9701 9.61173 11.9086C9.67327 11.8471 9.75673 11.8125 9.84375 11.8125H11.1562C11.2433 11.8125 11.3267 11.8471 11.3883 11.9086C11.4498 11.9701 11.4844 12.0536 11.4844 12.1406V13.4531C11.4844 13.5401 11.4498 13.6236 11.3883 13.6851C11.3267 13.7467 11.2433 13.7812 11.1562 13.7812ZM10.1719 13.125H10.8281V12.4688H10.1719V13.125Z" fill="#1CAAE6"/>
<path d="M14.4375 13.7812H13.125C13.038 13.7812 12.9545 13.7467 12.893 13.6851C12.8314 13.6236 12.7969 13.5401 12.7969 13.4531V12.1406C12.7969 12.0536 12.8314 11.9701 12.893 11.9086C12.9545 11.8471 13.038 11.8125 13.125 11.8125H14.4375C14.5245 11.8125 14.608 11.8471 14.6695 11.9086C14.7311 11.9701 14.7656 12.0536 14.7656 12.1406V13.4531C14.7656 13.5401 14.7311 13.6236 14.6695 13.6851C14.608 13.7467 14.5245 13.7812 14.4375 13.7812ZM13.4531 13.125H14.1094V12.4688H13.4531V13.125Z" fill="#1CAAE6"/>
<path d="M7.875 13.7812H6.5625C6.47548 13.7812 6.39202 13.7467 6.33048 13.6851C6.26894 13.6236 6.23438 13.5401 6.23438 13.4531V12.1406C6.23438 12.0536 6.26894 11.9701 6.33048 11.9086C6.39202 11.8471 6.47548 11.8125 6.5625 11.8125H7.875C7.96202 11.8125 8.04548 11.8471 8.10702 11.9086C8.16856 11.9701 8.20312 12.0536 8.20312 12.1406V13.4531C8.20312 13.5401 8.16856 13.6236 8.10702 13.6851C8.04548 13.7467 7.96202 13.7812 7.875 13.7812ZM6.89062 13.125H7.54688V12.4688H6.89062V13.125Z" fill="#1CAAE6"/>
<path d="M17.7188 13.7812H16.4062C16.3192 13.7812 16.2358 13.7467 16.1742 13.6851C16.1127 13.6236 16.0781 13.5401 16.0781 13.4531V12.1406C16.0781 12.0536 16.1127 11.9701 16.1742 11.9086C16.2358 11.8471 16.3192 11.8125 16.4062 11.8125H17.7188C17.8058 11.8125 17.8892 11.8471 17.9508 11.9086C18.0123 11.9701 18.0469 12.0536 18.0469 12.1406V13.4531C18.0469 13.5401 18.0123 13.6236 17.9508 13.6851C17.8892 13.7467 17.8058 13.7812 17.7188 13.7812ZM16.7344 13.125H17.3906V12.4688H16.7344V13.125Z" fill="#1CAAE6"/>
<path d="M4.59375 13.7812H3.28125C3.19423 13.7812 3.11077 13.7467 3.04923 13.6851C2.9877 13.6236 2.95312 13.5401 2.95312 13.4531V12.1406C2.95312 12.0536 2.9877 11.9701 3.04923 11.9086C3.11077 11.8471 3.19423 11.8125 3.28125 11.8125H4.59375C4.68077 11.8125 4.76423 11.8471 4.82577 11.9086C4.8873 11.9701 4.92188 12.0536 4.92188 12.1406V13.4531C4.92188 13.5401 4.8873 13.6236 4.82577 13.6851C4.76423 13.7467 4.68077 13.7812 4.59375 13.7812ZM3.60938 13.125H4.26562V12.4688H3.60938V13.125Z" fill="#1CAAE6"/>
<path d="M11.1562 10.5H9.84375C9.75673 10.5 9.67327 10.4654 9.61173 10.4039C9.55019 10.3424 9.51562 10.2589 9.51562 10.1719V8.85938C9.51562 8.77235 9.55019 8.68889 9.61173 8.62736C9.67327 8.56582 9.75673 8.53125 9.84375 8.53125H11.1562C11.2433 8.53125 11.3267 8.56582 11.3883 8.62736C11.4498 8.68889 11.4844 8.77235 11.4844 8.85938V10.1719C11.4844 10.2589 11.4498 10.3424 11.3883 10.4039C11.3267 10.4654 11.2433 10.5 11.1562 10.5ZM10.1719 9.84375H10.8281V9.1875H10.1719V9.84375Z" fill="#1CAAE6"/>
<path d="M14.4375 10.5H13.125C13.038 10.5 12.9545 10.4654 12.893 10.4039C12.8314 10.3424 12.7969 10.2589 12.7969 10.1719V8.85938C12.7969 8.77235 12.8314 8.68889 12.893 8.62736C12.9545 8.56582 13.038 8.53125 13.125 8.53125H14.4375C14.5245 8.53125 14.608 8.56582 14.6695 8.62736C14.7311 8.68889 14.7656 8.77235 14.7656 8.85938V10.1719C14.7656 10.2589 14.7311 10.3424 14.6695 10.4039C14.608 10.4654 14.5245 10.5 14.4375 10.5ZM13.4531 9.84375H14.1094V9.1875H13.4531V9.84375Z" fill="#1CAAE6"/>
<path d="M7.875 10.5H6.5625C6.47548 10.5 6.39202 10.4654 6.33048 10.4039C6.26894 10.3424 6.23438 10.2589 6.23438 10.1719V8.85938C6.23438 8.77235 6.26894 8.68889 6.33048 8.62736C6.39202 8.56582 6.47548 8.53125 6.5625 8.53125H7.875C7.96202 8.53125 8.04548 8.56582 8.10702 8.62736C8.16856 8.68889 8.20312 8.77235 8.20312 8.85938V10.1719C8.20312 10.2589 8.16856 10.3424 8.10702 10.4039C8.04548 10.4654 7.96202 10.5 7.875 10.5ZM6.89062 9.84375H7.54688V9.1875H6.89062V9.84375Z" fill="#1CAAE6"/>
<path d="M17.7188 10.5H16.4062C16.3192 10.5 16.2358 10.4654 16.1742 10.4039C16.1127 10.3424 16.0781 10.2589 16.0781 10.1719V8.85938C16.0781 8.77235 16.1127 8.68889 16.1742 8.62736C16.2358 8.56582 16.3192 8.53125 16.4062 8.53125H17.7188C17.8058 8.53125 17.8892 8.56582 17.9508 8.62736C18.0123 8.68889 18.0469 8.77235 18.0469 8.85938V10.1719C18.0469 10.2589 18.0123 10.3424 17.9508 10.4039C17.8892 10.4654 17.8058 10.5 17.7188 10.5ZM16.7344 9.84375H17.3906V9.1875H16.7344V9.84375Z" fill="#1CAAE6"/>
<path d="M4.59375 10.5H3.28125C3.19423 10.5 3.11077 10.4654 3.04923 10.4039C2.9877 10.3424 2.95312 10.2589 2.95312 10.1719V8.85938C2.95312 8.77235 2.9877 8.68889 3.04923 8.62736C3.11077 8.56582 3.19423 8.53125 3.28125 8.53125H4.59375C4.68077 8.53125 4.76423 8.56582 4.82577 8.62736C4.8873 8.68889 4.92188 8.77235 4.92188 8.85938V10.1719C4.92188 10.2589 4.8873 10.3424 4.82577 10.4039C4.76423 10.4654 4.68077 10.5 4.59375 10.5ZM3.60938 9.84375H4.26562V9.1875H3.60938V9.84375Z" fill="#1CAAE6"/>
<path d="M11.1562 17.0625H9.84375C9.75673 17.0625 9.67327 17.0279 9.61173 16.9664C9.55019 16.9049 9.51562 16.8214 9.51562 16.7344V15.4219C9.51562 15.3349 9.55019 15.2514 9.61173 15.1899C9.67327 15.1283 9.75673 15.0938 9.84375 15.0938H11.1562C11.2433 15.0938 11.3267 15.1283 11.3883 15.1899C11.4498 15.2514 11.4844 15.3349 11.4844 15.4219V16.7344C11.4844 16.8214 11.4498 16.9049 11.3883 16.9664C11.3267 17.0279 11.2433 17.0625 11.1562 17.0625ZM10.1719 16.4062H10.8281V15.75H10.1719V16.4062Z" fill="#1CAAE6"/>
<path d="M14.4375 17.0625H13.125C13.038 17.0625 12.9545 17.0279 12.893 16.9664C12.8314 16.9049 12.7969 16.8214 12.7969 16.7344V15.4219C12.7969 15.3349 12.8314 15.2514 12.893 15.1899C12.9545 15.1283 13.038 15.0938 13.125 15.0938H14.4375C14.5245 15.0938 14.608 15.1283 14.6695 15.1899C14.7311 15.2514 14.7656 15.3349 14.7656 15.4219V16.7344C14.7656 16.8214 14.7311 16.9049 14.6695 16.9664C14.608 17.0279 14.5245 17.0625 14.4375 17.0625ZM13.4531 16.4062H14.1094V15.75H13.4531V16.4062Z" fill="#1CAAE6"/>
<path d="M7.875 17.0625H6.5625C6.47548 17.0625 6.39202 17.0279 6.33048 16.9664C6.26894 16.9049 6.23438 16.8214 6.23438 16.7344V15.4219C6.23438 15.3349 6.26894 15.2514 6.33048 15.1899C6.39202 15.1283 6.47548 15.0938 6.5625 15.0938H7.875C7.96202 15.0938 8.04548 15.1283 8.10702 15.1899C8.16856 15.2514 8.20312 15.3349 8.20312 15.4219V16.7344C8.20312 16.8214 8.16856 16.9049 8.10702 16.9664C8.04548 17.0279 7.96202 17.0625 7.875 17.0625ZM6.89062 16.4062H7.54688V15.75H6.89062V16.4062Z" fill="#1CAAE6"/>
<path d="M17.7188 17.0625H16.4062C16.3192 17.0625 16.2358 17.0279 16.1742 16.9664C16.1127 16.9049 16.0781 16.8214 16.0781 16.7344V15.4219C16.0781 15.3349 16.1127 15.2514 16.1742 15.1899C16.2358 15.1283 16.3192 15.0938 16.4062 15.0938H17.7188C17.8058 15.0938 17.8892 15.1283 17.9508 15.1899C18.0123 15.2514 18.0469 15.3349 18.0469 15.4219V16.7344C18.0469 16.8214 18.0123 16.9049 17.9508 16.9664C17.8892 17.0279 17.8058 17.0625 17.7188 17.0625ZM16.7344 16.4062H17.3906V15.75H16.7344V16.4062Z" fill="#1CAAE6"/>
<path d="M4.59375 17.0625H3.28125C3.19423 17.0625 3.11077 17.0279 3.04923 16.9664C2.9877 16.9049 2.95312 16.8214 2.95312 16.7344V15.4219C2.95312 15.3349 2.9877 15.2514 3.04923 15.1899C3.11077 15.1283 3.19423 15.0938 3.28125 15.0938H4.59375C4.68077 15.0938 4.76423 15.1283 4.82577 15.1899C4.8873 15.2514 4.92188 15.3349 4.92188 15.4219V16.7344C4.92188 16.8214 4.8873 16.9049 4.82577 16.9664C4.76423 17.0279 4.68077 17.0625 4.59375 17.0625ZM3.60938 16.4062H4.26562V15.75H3.60938V16.4062Z" fill="#1CAAE6"/>
</svg>
