<svg width="34" height="29" viewBox="0 0 34 29" fill="none" xmlns="http://www.w3.org/2000/svg">
<path d="M12.4616 21.6963C10.5528 21.6963 8.99976 23.2491 8.99976 25.1579C8.99976 27.0669 10.5528 28.6201 12.4616 28.6201C14.3706 28.6201 15.9238 27.0669 15.9238 25.1579C15.9238 23.2491 14.3706 21.6963 12.4616 21.6963ZM12.4616 27.6173C11.1058 27.6173 10.0026 26.5141 10.0026 25.1579C10.0026 23.8021 11.1058 22.6991 12.4616 22.6991C13.8178 22.6991 14.921 23.8021 14.921 25.1579C14.921 26.5141 13.8178 27.6173 12.4616 27.6173Z" fill="black"/>
<path d="M26.6617 21.6963C24.7527 21.6963 23.1997 23.2491 23.1997 25.1579C23.1997 27.0669 24.7527 28.6201 26.6617 28.6201C28.571 28.6201 30.1244 27.0669 30.1244 25.1579C30.1244 23.2491 28.571 21.6963 26.6617 21.6963ZM26.6617 27.6173C25.3057 27.6173 24.2025 26.5141 24.2025 25.1579C24.2025 23.8021 25.3057 22.6991 26.6617 22.6991C28.018 22.6991 29.1216 23.8021 29.1216 25.1579C29.1216 26.5141 28.018 27.6173 26.6617 27.6173Z" fill="black"/>
<path d="M33.0331 2.71988C32.939 2.58654 32.7861 2.45156 32.6231 2.45156H9.07242C8.79545 2.45156 8.57102 2.67599 8.57102 2.95297C8.57102 3.22994 8.79545 3.45437 9.07242 3.45437H31.9109L27.4244 16.1566H9.86468L5.5523 2.95297C5.49912 2.75611 5.07654 1.32407 3.75073 0.530821C2.8194 -0.0264055 1.68471 -0.148818 0.378487 0.182025C0.109995 0.250085 -0.0525697 0.519068 0.0154909 0.787403C0.0837152 1.05589 0.356288 1.21714 0.62462 1.14845C1.96937 0.807459 3.03599 1.03533 3.79692 1.82594C4.38711 2.43933 4.58329 3.1805 4.58476 3.18605C4.5877 3.19778 4.59098 3.20905 4.59472 3.22048L8.86237 16.2573C8.85258 16.3281 8.85632 16.4018 8.87918 16.4747L10.1316 20.4845C10.1968 20.6939 10.3907 20.8364 10.6101 20.8364H27.343C27.62 20.8364 27.8444 20.6119 27.8444 20.335C27.8444 20.058 27.62 19.8336 27.343 19.8336H10.9788L10.1244 17.1594H27.7775C27.9892 17.1594 28.1781 16.9955 28.2495 16.7964L33.0951 3.22098C33.1501 3.06739 33.1269 2.85339 33.0331 2.71988Z" fill="black"/>
</svg>
