<svg width="24" height="24" viewBox="0 0 24 24" fill="none" xmlns="http://www.w3.org/2000/svg">
<path d="M22.3199 10.8452L21.6984 8.35915C21.8683 8.32306 21.9958 8.17231 21.9958 7.9917V7.59087C21.9958 6.72059 21.2878 6.01259 20.4175 6.01259H17.5867V5.1858C17.5867 4.75755 17.2383 4.40918 16.81 4.40918H2.37994C1.95169 4.40918 1.60331 4.75755 1.60331 5.1858V12C1.60331 12.2075 1.77155 12.3758 1.97911 12.3758C2.18663 12.3758 2.35491 12.2076 2.35491 12V5.1858C2.35491 5.17202 2.36611 5.16077 2.37994 5.16077H16.81C16.8238 5.16077 16.835 5.17207 16.835 5.1858V12.0001C16.835 12.2076 17.0033 12.3759 17.2108 12.3759C17.4183 12.3759 17.5866 12.2077 17.5866 12.0001V11.5741H22.0195C22.0199 11.5741 22.0202 11.5742 22.0205 11.5742C22.0209 11.5742 22.0212 11.5742 22.0215 11.5742C22.567 11.5745 23.0302 11.9326 23.1893 12.4259H22.0208C21.8133 12.4259 21.645 12.5942 21.645 12.8017V13.6034C21.645 14.2526 22.1732 14.7808 22.8225 14.7808H23.2484V16.4343H22.2658C21.943 15.5022 21.057 14.8309 20.0166 14.8309C18.9762 14.8309 18.0902 15.5022 17.7675 16.4343H17.5865V13.6033C17.5865 13.3958 17.4183 13.2275 17.2107 13.2275C17.0032 13.2275 16.8349 13.3958 16.8349 13.6033V16.4342H9.0383C8.71552 15.5021 7.82953 14.8308 6.78914 14.8308C5.74875 14.8308 4.86272 15.5021 4.53998 16.4342H2.37994C2.36611 16.4342 2.35491 16.4229 2.35491 16.4091V15.5824H3.9833C4.19081 15.5824 4.35909 15.4142 4.35909 15.2066C4.35909 14.999 4.19086 14.8308 3.9833 14.8308H1.97939C1.9793 14.8308 1.97925 14.8308 1.97916 14.8308C1.97906 14.8308 1.97902 14.8308 1.97892 14.8308H0.375797C0.168281 14.8308 0 14.999 0 15.2066C0 15.4142 0.168234 15.5824 0.375797 15.5824H1.60336V16.4091C1.60336 16.8374 1.95173 17.1858 2.37998 17.1858H4.40986C4.40977 17.1941 4.4092 17.2024 4.4092 17.2108C4.4092 18.5231 5.47688 19.5907 6.78914 19.5907C8.10141 19.5907 9.16908 18.5231 9.16908 17.2108C9.16908 17.2024 9.16852 17.1941 9.16842 17.1858H17.6373C17.6372 17.1941 17.6367 17.2024 17.6367 17.2108C17.6367 18.5231 18.7043 19.5907 20.0166 19.5907C21.3289 19.5907 22.3965 18.5231 22.3965 17.2108C22.3965 17.2024 22.396 17.1941 22.3959 17.1858H23.6242C23.8317 17.1858 24 17.0175 24 16.81V12.8016C24 11.812 23.2698 10.9898 22.3199 10.8452ZM17.5867 6.76413H20.4175C20.8734 6.76413 21.2443 7.13501 21.2443 7.59087V7.6159H17.5867V6.76413ZM17.5867 10.8226V8.36745H20.9258L21.5396 10.8226H17.5867ZM6.78914 18.8393C5.89125 18.8393 5.16075 18.1088 5.16075 17.2109C5.16075 16.3129 5.89125 15.5825 6.78914 15.5825C7.68703 15.5825 8.41753 16.3129 8.41753 17.2109C8.41753 18.1088 7.68703 18.8393 6.78914 18.8393ZM20.0167 18.8393C19.1188 18.8393 18.3883 18.1088 18.3883 17.2109C18.3883 16.3129 19.1188 15.5825 20.0167 15.5825C20.9146 15.5825 21.6451 16.3129 21.6451 17.2109C21.6451 18.1088 20.9146 18.8393 20.0167 18.8393ZM23.2485 14.0292H22.8225C22.5877 14.0292 22.3966 13.8382 22.3966 13.6033V13.1774H23.2484V14.0292H23.2485Z" fill="#1CAAE6"/>
<path d="M6.78834 16.4343C6.36009 16.4343 6.01172 16.7827 6.01172 17.211C6.01172 17.6392 6.36009 17.9876 6.78834 17.9876C7.21659 17.9876 7.56497 17.6392 7.56497 17.211C7.56497 16.7827 7.21659 16.4343 6.78834 16.4343Z" fill="#1CAAE6"/>
<path d="M20.0188 16.4343C19.5906 16.4343 19.2422 16.7827 19.2422 17.211C19.2422 17.6392 19.5906 17.9876 20.0188 17.9876C20.4471 17.9876 20.7954 17.6392 20.7954 17.211C20.7954 16.7827 20.4471 16.4343 20.0188 16.4343Z" fill="#1CAAE6"/>
<path d="M15.6086 14.8311H9.99689C9.78937 14.8311 9.62109 14.9993 9.62109 15.2069C9.62109 15.4144 9.78933 15.5826 9.99689 15.5826H15.6086C15.8161 15.5826 15.9844 15.4144 15.9844 15.2069C15.9844 14.9993 15.8161 14.8311 15.6086 14.8311Z" fill="#1CAAE6"/>
<path d="M5.98661 13.2275H1.17658C0.969062 13.2275 0.800781 13.3958 0.800781 13.6033C0.800781 13.8109 0.969016 13.9791 1.17658 13.9791H5.98661C6.19412 13.9791 6.3624 13.8109 6.3624 13.6033C6.3624 13.3958 6.19412 13.2275 5.98661 13.2275Z" fill="#1CAAE6"/>
<path d="M9.59419 6.41333C7.61883 6.41333 6.01172 8.02044 6.01172 9.9958C6.01172 11.9712 7.61883 13.5783 9.59419 13.5783C11.5695 13.5783 13.1767 11.9712 13.1767 9.9958C13.1767 8.02044 11.5695 6.41333 9.59419 6.41333ZM9.59419 12.8267C8.03325 12.8267 6.76331 11.5568 6.76331 9.99585C6.76331 8.43491 8.03325 7.16497 9.59419 7.16497C11.1551 7.16497 12.4251 8.43491 12.4251 9.99585C12.4251 11.5568 11.1551 12.8267 9.59419 12.8267Z" fill="#1CAAE6"/>
<path d="M11.0628 10.9325L9.97034 9.84009V8.3924C9.97034 8.18488 9.80211 8.0166 9.59455 8.0166C9.38698 8.0166 9.21875 8.18484 9.21875 8.3924V9.99576C9.21875 10.0954 9.25831 10.1909 9.32881 10.2614L10.5313 11.4639C10.6047 11.5373 10.7008 11.574 10.797 11.574C10.8931 11.574 10.9894 11.5373 11.0627 11.4639C11.2095 11.3172 11.2095 11.0793 11.0628 10.9325Z" fill="#1CAAE6"/>
</svg>
