<svg width="34" height="29" viewBox="0 0 34 29" fill="none" xmlns="http://www.w3.org/2000/svg">
<path d="M30.3335 2.40874C28.729 0.855361 26.5968 0 24.3297 0C22.063 0 19.9308 0.855361 18.3253 2.40908L16.5595 4.12189L14.7927 2.40874C13.1889 0.85553 11.057 0 8.79029 0C6.5232 0 4.39101 0.855361 2.78619 2.40891C0.989082 4.15077 -0.000675095 6.46746 3.45478e-07 8.93262C0.000304294 11.3967 0.989724 13.7121 2.78619 15.4523L16.2069 28.451C16.3052 28.5461 16.4325 28.5936 16.5595 28.5936C16.6865 28.5936 16.8138 28.5461 16.9121 28.451L30.3338 15.4523C32.1302 13.7121 33.1197 11.3967 33.12 8.93262C33.1206 6.46746 32.1309 4.15077 30.3335 2.40874ZM29.6287 14.7245L16.5595 27.3817L3.49129 14.7245C1.8934 13.1769 1.01316 11.1199 1.01316 8.93245C1.01282 6.74402 1.89272 4.68572 3.49098 3.13663C4.90583 1.76727 6.78771 1.01318 8.79029 1.01318C10.7925 1.01318 12.6741 1.76727 14.0876 3.13646L16.2069 5.19128C16.4035 5.38159 16.7161 5.38176 16.9121 5.19112L19.0301 3.13676C20.4453 1.76727 22.3275 1.01318 24.3297 1.01318C26.3323 1.01318 28.2141 1.76727 29.6287 3.13646C31.2272 4.68572 32.1072 6.74402 32.1068 8.93245C32.1068 11.1199 31.2266 13.1769 29.6287 14.7245Z" fill="black"/>
<path d="M7.33295 3.11976C6.42721 3.47316 5.61475 3.99428 4.9172 4.66921C3.39381 6.14544 2.54879 8.08003 2.53815 10.1691C2.53678 10.4601 2.77137 10.6695 3.06219 10.6695C3.06321 10.6695 3.06391 10.6695 3.06493 10.6695C3.35472 10.6695 3.59033 10.4646 3.5917 10.1746C3.60097 8.37102 4.33213 6.68869 5.65008 5.41151C6.24615 4.83469 6.94131 4.3962 7.7157 4.09408C7.98696 3.98809 8.12072 3.68646 8.01509 3.41539C7.9091 3.14427 7.60287 3.01444 7.33295 3.11976Z" fill="black"/>
</svg>
