<svg width="33" height="31" viewBox="0 0 33 31" fill="none" xmlns="http://www.w3.org/2000/svg">
<path d="M30.3821 3.67789C28.6738 1.82511 26.3299 0.804688 23.7814 0.804688C21.8765 0.804688 20.132 1.40692 18.5962 2.59452C17.8213 3.19398 17.1191 3.92739 16.5 4.78341C15.8811 3.92764 15.1787 3.19398 14.4035 2.59452C12.868 1.40692 11.1235 0.804688 9.21856 0.804688C6.67014 0.804688 4.32591 1.82511 2.61765 3.67789C0.929787 5.50901 0 8.0106 0 10.7222C0 13.513 1.04006 16.0677 3.27301 18.7622C5.27055 21.1724 8.14149 23.6191 11.4661 26.4522C12.6013 27.4198 13.8881 28.5165 15.2243 29.6847C15.5773 29.9939 16.0302 30.1641 16.5 30.1641C16.9696 30.1641 17.4227 29.9939 17.7752 29.6852C19.1114 28.5168 20.3989 27.4195 21.5346 26.4515C24.8588 23.6188 27.7297 21.1724 29.7272 18.7619C31.9602 16.0677 33 13.513 33 10.7219C33 8.0106 32.0702 5.50901 30.3821 3.67789Z" fill="#1CAAE6"/>
</svg>
