<svg width="39" height="30" viewBox="0 0 39 30" fill="none" xmlns="http://www.w3.org/2000/svg">
<path d="M38.4361 28.4585C34.2862 24.309 28.5757 21.9177 22.6226 21.2702C26.7628 19.874 29.7541 15.9562 29.7541 11.3502C29.7541 5.57856 25.0587 0.882812 19.2875 0.882812C13.5162 0.882812 8.82089 5.57856 8.82089 11.3502C8.82089 15.9593 11.816 19.8794 15.9608 21.2732C10.0175 21.9247 4.31739 24.3152 0.174078 28.4585C-0.0580258 28.6906 -0.0580258 29.0666 0.174078 29.2987C0.290149 29.4148 0.442191 29.4728 0.594232 29.4728C0.746282 29.4728 0.898316 29.4148 1.01435 29.2987C10.4159 19.8972 28.1935 19.8972 37.5958 29.2987C37.8279 29.5308 38.204 29.5308 38.4361 29.2987C38.6682 29.0666 38.6682 28.6906 38.4361 28.4585ZM10.0093 11.3502C10.0093 6.23391 14.1716 2.07126 19.2875 2.07126C24.4034 2.07126 28.5656 6.23391 28.5656 11.3502C28.5656 16.4669 24.4034 20.6299 19.2875 20.6299C14.1716 20.6299 10.0093 16.4669 10.0093 11.3502Z" fill="black"/>
</svg>
