<svg width="28" height="20" viewBox="0 0 28 20" fill="none" xmlns="http://www.w3.org/2000/svg">
<path d="M0.583387 10.5834L26.0085 10.5834L18.2542 18.3376C18.0264 18.5655 18.0264 18.9346 18.2542 19.1625C18.4821 19.3903 18.8513 19.3903 19.0791 19.1625L27.8291 10.4125C28.057 10.1846 28.057 9.81544 27.8291 9.58761L19.0791 0.837612C18.9652 0.723698 18.8159 0.666714 18.6666 0.666714C18.5174 0.666714 18.3681 0.723698 18.2542 0.837612C18.0263 1.06549 18.0263 1.43463 18.2542 1.66246L26.0085 9.41666L0.583332 9.41666C0.260895 9.41666 -1.90735e-05 9.67757 -1.90735e-05 10C-1.90735e-05 10.3224 0.26095 10.5834 0.583387 10.5834Z" fill="#1CAAE6"/>
</svg>
