<svg width="65" height="65" viewBox="0 0 65 65" fill="none" xmlns="http://www.w3.org/2000/svg">
<path d="M21.9043 49.7529C21.8878 49.6717 21.8637 49.5917 21.8319 49.5142C21.8002 49.4381 21.7608 49.3644 21.7151 49.2959C21.6694 49.226 21.6161 49.1613 21.5577 49.1029C21.4993 49.0445 21.4346 48.9912 21.3647 48.9455C21.2962 48.8998 21.2226 48.8604 21.1451 48.8287C21.0689 48.7969 20.989 48.7716 20.9077 48.7563C20.7439 48.7233 20.5751 48.7233 20.4126 48.7563C20.3313 48.7716 20.2514 48.7969 20.1739 48.8287C20.0978 48.8604 20.0241 48.8998 19.9556 48.9455C19.8857 48.9912 19.821 49.0445 19.7626 49.1029C19.7042 49.1613 19.6509 49.226 19.6052 49.2959C19.5582 49.3644 19.5201 49.4381 19.4884 49.5142C19.4566 49.5917 19.4312 49.6717 19.416 49.7529C19.3995 49.8342 19.3906 49.9179 19.3906 50.0005C19.3906 50.083 19.3995 50.1668 19.416 50.248C19.4312 50.3293 19.4566 50.4093 19.4884 50.4854C19.5201 50.5629 19.5582 50.6365 19.6052 50.7051C19.6509 50.7749 19.7042 50.8396 19.7626 50.898C19.821 50.9564 19.8857 51.0097 19.9556 51.0554C20.0241 51.1013 20.0978 51.1406 20.1739 51.1724C20.2514 51.2041 20.3313 51.2295 20.4126 51.2447C20.4938 51.2612 20.5776 51.2701 20.6602 51.2701C20.7427 51.2701 20.8265 51.2612 20.9077 51.2447C20.989 51.2295 21.0689 51.2041 21.1451 51.1724C21.2226 51.1406 21.2962 51.1011 21.3647 51.0554C21.4346 51.0097 21.4993 50.9564 21.5577 50.898C21.6161 50.8396 21.6694 50.7749 21.7151 50.7051C21.7608 50.6365 21.8002 50.5629 21.8319 50.4854C21.8637 50.4093 21.8878 50.3293 21.9043 50.248C21.9208 50.1668 21.9297 50.083 21.9297 50.0005C21.9297 49.9179 21.9208 49.8342 21.9043 49.7529Z" fill="#1CAAE6"/>
<path d="M58.3976 50.1442C58.3926 50.1315 58.3875 50.1189 58.3822 50.1065C57.2137 47.3723 54.4733 46.3618 51.2302 47.4694L42.3856 49.9153C41.8742 48.3667 40.5987 47.049 38.7952 46.3797C38.7841 46.3756 38.7729 46.3715 38.7616 46.3677L29.0394 43.068C28.2302 42.022 25.6954 39.3456 20.9496 39.3456C17.6329 39.3456 14.6989 41.6208 13.0203 44.1009H1.26953C0.568369 44.1009 0 44.6692 0 45.3704V61.3763C0 62.0774 0.568369 62.6458 1.26953 62.6458H8.81778C9.51895 62.6458 10.0873 62.0774 10.0873 61.3763V60.2801H13.6271C14.3283 60.2801 14.8967 59.7118 14.8967 59.0106V58.6452C16.9602 58.8253 17.6389 59.2167 19.534 60.3095C20.9914 61.1499 23.1942 62.4201 27.161 64.2036C27.1794 64.2119 27.1981 64.2198 27.2167 64.2271C27.9781 64.5266 29.4663 64.9971 31.3012 64.9971C32.5783 64.9971 34.0237 64.769 35.5073 64.0965L55.0569 57.0968C55.0917 57.0844 55.126 57.0704 55.1595 57.0549C57.0279 56.1953 59.8121 53.7727 58.3976 50.1442ZM7.54825 60.1066H2.53906V46.6398H7.54825V60.1066ZM12.3576 57.741H10.0873V46.6398H12.3576V57.741ZM54.145 54.7262L34.6041 61.7227C34.587 61.7288 34.5638 61.738 34.5469 61.7448C34.5297 61.7518 34.5126 61.7592 34.4957 61.7669C31.7742 63.0176 29.1873 62.2689 28.1734 61.8747C24.3417 60.1505 22.2967 58.9713 20.8024 58.1096C18.725 56.9117 17.7239 56.3343 14.8967 56.1009V45.8758C16.1001 43.9035 18.4337 41.8845 20.9497 41.8845C25.2643 41.8845 27.0926 44.6908 27.1644 44.8041C27.3194 45.0562 27.5577 45.2462 27.8379 45.3413L37.9275 48.7658C39.5389 49.3706 40.3905 50.7505 39.9991 52.1267C39.8185 52.7622 39.401 53.2893 38.8239 53.6109C38.2517 53.9297 37.5903 54.0085 36.9599 53.8341L25.5858 50.2297C24.917 50.0178 24.2037 50.388 23.992 51.0564C23.7801 51.7248 24.1503 52.4383 24.8187 52.6501L36.2126 56.2608C36.2247 56.2646 36.2367 56.2683 36.2489 56.2717C36.7038 56.4011 37.1669 56.4651 37.6273 56.4651C38.47 56.4651 39.3034 56.2504 40.0598 55.8289C41.2294 55.1773 42.0752 54.1091 42.4413 52.8211C42.4705 52.7183 42.4964 52.6155 42.5189 52.5127L52.0509 49.872C53.4276 49.4018 55.2348 49.2323 56.0394 51.0854C56.8722 53.261 54.7077 54.4578 54.145 54.7262Z" fill="#1CAAE6"/>
<path d="M45.5853 16.6996C45.5687 16.6184 45.5446 16.5384 45.5116 16.4609C45.4799 16.3848 45.4418 16.3111 45.3948 16.2426C45.3491 16.1728 45.2958 16.108 45.2374 16.0496C45.179 15.9912 45.1143 15.9379 45.0444 15.8922C44.9759 15.8465 44.9022 15.8071 44.8261 15.7754C44.7486 15.7437 44.6687 15.7183 44.5887 15.703C44.4249 15.67 44.2561 15.67 44.0923 15.703C44.011 15.7183 43.9311 15.7437 43.8549 15.7754C43.7774 15.8071 43.7038 15.8465 43.6353 15.8922C43.5654 15.9379 43.5007 15.9912 43.4423 16.0496C43.3839 16.108 43.3306 16.1728 43.2849 16.2426C43.2392 16.3111 43.1998 16.3848 43.1681 16.4609C43.1363 16.5384 43.1109 16.6184 43.0957 16.6996C43.0792 16.7809 43.0703 16.8647 43.0703 16.9472C43.0703 17.0297 43.0792 17.1135 43.0957 17.1947C43.1109 17.276 43.1363 17.356 43.1681 17.4321C43.1998 17.5096 43.2392 17.5832 43.2849 17.6518C43.3306 17.7216 43.3839 17.7863 43.4423 17.8447C43.5007 17.9031 43.5654 17.9565 43.6353 18.0022C43.7038 18.0479 43.7774 18.0872 43.8549 18.119C43.9311 18.1507 44.011 18.1748 44.0923 18.1913C44.1735 18.2078 44.2573 18.2167 44.3398 18.2167C44.4224 18.2167 44.5062 18.2078 44.5887 18.1913C44.6687 18.1748 44.7486 18.1507 44.8261 18.119C44.9022 18.0872 44.9759 18.0479 45.0444 18.0022C45.1143 17.9565 45.179 17.9031 45.2374 17.8447C45.2958 17.7863 45.3491 17.7216 45.3948 17.6518C45.4418 17.5832 45.4799 17.5096 45.5116 17.4321C45.5446 17.356 45.5687 17.276 45.5853 17.1947C45.6018 17.1135 45.6094 17.0297 45.6094 16.9472C45.6094 16.8647 45.6018 16.7809 45.5853 16.6996Z" fill="#1CAAE6"/>
<path d="M63.7307 4.30236H56.1824C55.4813 4.30236 54.9129 4.87073 54.9129 5.57189V6.66801H51.3731C50.6719 6.66801 50.1035 7.23638 50.1035 7.93754V8.30291C48.04 8.12276 47.3613 7.73149 45.4663 6.63868C44.0089 5.79825 41.8061 4.52809 37.8392 2.74452C37.8208 2.73614 37.8023 2.7284 37.7834 2.72103C36.4921 2.21297 33.1079 1.21334 29.4934 2.85142L24.3848 4.68056L20.0787 0.374561C19.583 -0.121191 18.7791 -0.121191 18.2834 0.374561L4.14611 14.5117C3.68882 14.9691 3.6011 15.7622 4.14611 16.3072L28.3036 40.4647C28.6902 40.8514 29.5954 40.9683 30.0991 40.4647L43.0058 27.5581C43.3414 27.5871 43.6896 27.6027 44.0505 27.6027C47.3673 27.6027 50.3012 25.3274 51.9796 22.8475H63.7307C64.4318 22.8475 65.0002 22.2792 65.0002 21.578V5.57189C65.0002 4.87073 64.4318 4.30236 63.7307 4.30236ZM19.1809 3.06762L22.0744 5.96113C21.2143 6.49307 20.2199 6.77769 19.1809 6.77769C18.1418 6.77769 17.1475 6.49319 16.2874 5.96113L19.1809 3.06762ZM9.73281 18.303L6.83929 15.4094L9.73281 12.5158C10.2647 13.376 10.5494 14.3704 10.5494 15.4094C10.5494 16.4483 10.2649 17.4428 9.73281 18.303ZM29.2015 37.7715L26.3084 34.8785C28.0747 33.7885 30.3279 33.7885 32.0943 34.8785L29.2015 37.7715ZM33.9235 33.0496C31.1181 31.0146 27.2848 31.0146 24.4794 33.0496L11.5618 20.1319C12.5532 18.7684 13.0884 17.1306 13.0884 15.4094C13.0884 13.688 12.5533 12.0503 11.5618 10.6868L14.4585 7.79027C15.822 8.78165 17.4597 9.31688 19.181 9.31688C20.9024 9.31688 22.5401 8.78165 23.9036 7.79027L26.6494 10.5361C26.0569 10.6236 25.4792 10.8189 24.9404 11.1191C24.0304 11.6262 23.3164 12.3855 22.8718 13.3041C21.4398 13.5693 20.114 14.2626 19.074 15.3025C16.2525 18.1241 16.2525 22.7151 19.0741 25.5368C20.4848 26.9475 22.338 27.653 24.1912 27.653C26.0444 27.653 27.8976 26.9476 29.3085 25.5368C30.2263 24.6189 30.8694 23.4908 31.1914 22.2614L35.4779 23.7162C34.9953 25.9515 35.4896 28.3032 36.8227 30.1504L33.9235 33.0496ZM26.205 20.5685C26.2161 20.5725 26.2273 20.5766 26.2386 20.5804L28.7772 21.442C28.5855 22.3072 28.1517 23.1027 27.5131 23.7414C25.6814 25.5728 22.7011 25.5731 20.8696 23.7414C19.038 21.9099 19.038 18.9296 20.8696 17.098C21.3114 16.6559 21.8328 16.3105 22.401 16.0762C22.6353 18.0265 24.0395 19.7649 26.205 20.5685ZM38.652 28.321C38.1619 27.5225 37.8847 26.6111 37.8409 25.6809C38.449 26.1205 39.1922 26.5513 40.0798 26.8932L38.652 28.321ZM50.1034 21.0719C48.9001 23.0445 46.5665 25.0634 44.0505 25.0634C43.5798 25.0634 43.1386 25.0299 42.7261 24.9702C42.7245 24.9699 42.7228 24.9697 42.7212 24.9694C39.9795 24.5712 38.5047 23.013 38.0186 22.396C37.9927 22.3579 37.8824 22.2135 37.866 22.1895C37.7181 21.9252 37.4756 21.7127 37.1664 21.6077L27.0726 18.1819C25.4618 17.5773 24.6103 16.198 25.0006 14.8223C25.0008 14.8214 25.0011 14.8206 25.0013 14.8197C25.0017 14.8187 25.002 14.8175 25.0022 14.8165C25.1836 14.183 25.6003 13.6575 26.1762 13.3367C26.7482 13.0179 27.4095 12.9389 28.0402 13.1137L39.4143 16.718C40.0829 16.9301 40.7963 16.5597 41.0081 15.8913C41.2198 15.2229 40.8498 14.5094 40.1814 14.2975L31.1353 11.4309L31.0564 11.3519C31.0556 11.3512 31.0548 11.3503 31.0539 11.3495L26.3706 6.66623L30.3961 5.2248C30.4097 5.21985 30.4264 5.21363 30.4399 5.20817C30.4433 5.20678 30.4499 5.20424 30.4532 5.20284C30.4705 5.19586 30.4875 5.1885 30.5044 5.18075C33.2257 3.93001 35.8125 4.67865 36.8265 5.07297C40.6583 6.79712 42.7035 7.97639 44.1978 8.83802C46.2752 10.0361 47.2763 10.6133 50.1034 10.8468V21.0719ZM54.9129 20.3082H52.6426V9.20707H54.9129V20.3082ZM62.4611 20.3082H57.4519V6.84142H62.4611V20.3082Z" fill="#1CAAE6"/>
</svg>
