<svg width="50" height="34" viewBox="0 0 50 34" fill="none" xmlns="http://www.w3.org/2000/svg">
<path d="M1.04176 18.0416L46.4437 18.0416L32.5968 31.8885C32.1899 32.2954 32.1899 32.9546 32.5968 33.3614C33.0038 33.7684 33.663 33.7684 34.0698 33.3614L49.6948 17.7364C50.1017 17.3295 50.1017 16.6703 49.6948 16.2635L34.0698 0.638481C33.8664 0.435062 33.5998 0.333305 33.3333 0.333305C33.0668 0.333305 32.8003 0.435062 32.5967 0.638481C32.1898 1.04541 32.1898 1.70459 32.5967 2.11143L46.4437 15.9582L1.04166 15.9582C0.465881 15.9582 -3.43323e-05 16.4241 -3.43323e-05 16.9999C-3.43323e-05 17.5757 0.465981 18.0416 1.04176 18.0416Z" fill="#1CAAE6"/>
</svg>
