<svg width="50" height="34" viewBox="0 0 50 34" fill="none" xmlns="http://www.w3.org/2000/svg">
<path d="M48.9582 15.9584H3.55628L17.4032 2.11152C17.8101 1.70459 17.8101 1.04541 17.4032 0.638574C16.9962 0.231641 16.337 0.231641 15.9302 0.638574L0.3052 16.2636C-0.101733 16.6705 -0.101733 17.3297 0.3052 17.7365L15.9302 33.3615C16.1336 33.5649 16.4002 33.6667 16.6667 33.6667C16.9332 33.6667 17.1997 33.5649 17.4033 33.3615C17.8102 32.9546 17.8102 32.2954 17.4033 31.8886L3.55628 18.0418H48.9583C49.5341 18.0418 50 17.5759 50 17.0001C50 16.4243 49.534 15.9584 48.9582 15.9584Z" fill="#1CAAE6"/>
</svg>
